<svg width="808" height="808" viewBox="0 0 808 808" fill="none" xmlns="http://www.w3.org/2000/svg">
<g clip-path="url(#clip0_425_16)">
<path d="M723.79 84.42C647.55 8.48 537.94 0 404 0C269.89 0 160.12 8.58 83.92 84.72C7.72 160.86 0 270.43 0 404.39C0 538.35 7.74 648 84 724.14C160.26 800.28 269.9 808 404 808C538.1 808 647.85 800.29 724 724.14C800.15 647.99 808 538.36 808 404.39C808 270.25 800.16 160.54 723.79 84.42Z" fill="black"/>
<path d="M609.932 202.49L644.671 276.989L316.769 429.892L282.03 355.393L609.932 202.49ZM530.98 95.6459L565.466 169.601L278.892 303.232L244.406 229.278L530.98 95.6459ZM409.804 99.8511L506.161 306.489L426.225 343.764L329.868 137.126L409.804 99.8511ZM654.405 333.356L688.384 406.223L540.474 475.194L506.496 402.327L654.405 333.356ZM510.075 310.623L619.617 545.538L539.681 582.813L430.139 347.898L510.075 310.623ZM269.139 434.227L397.953 710.47L322.91 745.463L210.325 504.022L269.139 434.227ZM367.882 661.6C375.767 634.972 379.894 611.642 380.263 591.61C380.994 571.408 378.861 551.218 373.865 531.039C368.869 510.86 360.117 484.046 347.609 450.598L428.05 424.343C447.655 479.638 459.772 527.391 464.4 567.603C469.028 607.814 465.149 648.241 452.765 688.883L367.882 661.6ZM436.186 490.061C452.999 510.027 469.451 523.54 485.543 530.6C501.997 537.492 518.67 539.648 535.562 537.067C552.454 534.487 572.32 527.871 595.159 517.221L728.93 454.843L747.936 535.354L629.391 590.632C597.851 605.339 569.781 614.236 545.181 617.322C520.749 620.77 496.585 617.694 472.689 608.093C448.986 597.961 424.246 579.927 398.47 553.991L436.186 490.061ZM167.25 547.942C177.794 522.282 187.251 490.507 195.624 452.619C204.189 414.2 209.697 379.634 212.147 348.921L293.59 364.567C291.574 399.05 284.167 440.901 271.369 490.121C258.765 538.81 244.495 582.979 228.559 622.629L167.25 547.942ZM91.8692 379.188C102.266 358.893 111.178 333.993 118.605 304.49C126.226 274.455 132.011 242.849 135.96 209.672L224.325 227.387C219 258.558 210.882 293.679 199.972 332.751C189.256 371.291 176.57 409.866 161.915 448.477L91.8692 379.188Z" fill="white"/>
</g>
<defs>
<clipPath id="clip0_425_16">
<rect width="808" height="808" fill="white"/>
</clipPath>
</defs>
</svg>
